<svg xmlns="http://www.w3.org/2000/svg" viewBox="0 0 520 112" role="img" aria-labelledby="title desc">
  <title id="title">GloryStarWear logo</title>
  <desc id="desc">GloryStarWear company logo with GS monogram and wordmark.</desc>
  <rect width="520" height="112" rx="18" fill="#ffffff"/>
  <g transform="translate(8 8)">
    <rect width="96" height="96" rx="22" fill="#ffffff"/>
    <rect x="5" y="5" width="86" height="86" rx="19" fill="none" stroke="#12352f" stroke-width="6"/>
    <path d="M31 32c0-8 6.8-14 17-14h18c2.5 0 4.5 2 4.5 4.5S68.5 27 66 27H48.3c-5 0-8 2.2-8 5.5 0 3.5 2.6 5.4 8 5.4h9.4c10.6 0 17.3 5.9 17.3 14.8 0 9-7.4 15.3-18.7 15.3H36.2c-2.5 0-4.5-2-4.5-4.5s2-4.5 4.5-4.5h20c5.7 0 9.2-2.3 9.2-6.1 0-3.9-3-6-8.4-6h-9.5C37 46.9 31 41.1 31 32Z" fill="#12352f"/>
    <path d="M25 67V37c0-10.4 7.3-18.1 18.2-19.1v9.4c-5.2.8-8.5 4.5-8.5 9.7v23.2h15.6V51h-7.7c-2.4 0-4.3-1.9-4.3-4.3s1.9-4.3 4.3-4.3h16.5v24.5H25Z" fill="#12352f"/>
    <path d="M69.4 17.7l2.7 8.4h8.8l-7.1 5.2 2.7 8.4-7.1-5.2-7.1 5.2 2.7-8.4-7.1-5.2h8.8l2.7-8.4Z" fill="#c8ef62"/>
    <path d="M16 75h31c16.8 0 28.6-7.2 35-21.4" fill="none" stroke="#1f8a70" stroke-width="5" stroke-linecap="round"/>
  </g>
  <text x="126" y="55" fill="#12352f" font-family="Inter, Arial, Helvetica, sans-serif" font-size="34" font-weight="900" letter-spacing="0">GloryStarWear</text>
  <text x="128" y="82" fill="#5b646b" font-family="Inter, Arial, Helvetica, sans-serif" font-size="13" font-weight="800" letter-spacing="2.2">CUSTOM SPORTSWEAR OEM / ODM</text>
  <path d="M126 91h210" stroke="#c8ef62" stroke-width="5" stroke-linecap="round"/>
</svg>
